<?xml version="1.0" standalone="no"?>
<!DOCTYPE svg PUBLIC "-//W3C//DTD SVG 20010904//EN"
 "http://www.w3.org/TR/2001/REC-SVG-20010904/DTD/svg10.dtd">
<svg version="1.0" xmlns="http://www.w3.org/2000/svg"
 width="369.000000pt" height="369.000000pt" viewBox="0 0 369.000000 369.000000"
 preserveAspectRatio="xMidYMid meet">
<metadata>
Created by potrace 1.11, written by Peter Selinger 2001-2013
</metadata>
<g transform="translate(0.000000,369.000000) scale(0.100000,-0.100000)"
fill="#000000" stroke="none">
<path d="M141 3148 c-5 -13 -8 -25 -8 -28 0 -3 -5 -15 -11 -26 -26 -49 -82
-271 -97 -384 -3 -25 -8 -63 -11 -85 -8 -57 -8 -279 0 -355 27 -250 90 -467
197 -683 253 -505 718 -873 1264 -1002 98 -23 116 -26 242 -43 72 -10 353 -8
428 2 487 68 890 281 1215 642 99 109 196 256 279 422 l51 102 -43 19 c-96 43
-425 179 -2392 988 -247 101 -463 190 -480 198 -52 23 -418 172 -485 198 -36
14 -82 32 -103 41 -37 16 -38 16 -46 -6z"/>
</g>
</svg>
