<?xml version="1.0" encoding="utf-8"?>
<!-- Generator: Adobe Illustrator 22.0.1, SVG Export Plug-In . SVG Version: 6.00 Build 0)  -->
<svg version="1.1" xmlns="http://www.w3.org/2000/svg" xmlns:xlink="http://www.w3.org/1999/xlink" x="0px" y="0px"
	 viewBox="0 0 17.6 17.6" style="enable-background:new 0 0 17.6 17.6;" xml:space="preserve">
<style type="text/css">
	.st0{display:none;}
	.st1{display:inline;fill:#FFFFFF;}
	.st2{fill:#FFFFFF;}
</style>
<g id="Layer_1" class="st0">
	<path id="edit" class="st1" d="M16.4,1.2C14.9-0.2,13.8,0,13.8,0L7.8,6.1L1,12.8l-1,4.8l4.8-1l6.8-6.8l6.1-6.1
		C17.6,3.8,17.8,2.7,16.4,1.2z M4.5,16l-1.6,0.4c-0.2-0.3-0.4-0.7-0.7-0.9c-0.3-0.3-0.6-0.5-0.9-0.7l0.3-1.6l0.5-0.5
		c0.7,0.1,1.4,0.5,1.9,1c0.6,0.5,0.9,1.2,1,1.9L4.5,16z"/>
</g>
<g id="Layer_2">
	<g id="Close">
		<path class="st2" d="M10.9,8.8L17,2.6c0.6-0.6,0.6-1.5,0-2.1C16.5,0,15.6,0,15,0.6L8.8,6.7L2.6,0.6C2,0,1.1,0,0.6,0.6
			C0,1.1,0,2,0.6,2.6l6.2,6.2L0.6,15C0,15.6,0,16.5,0.6,17c0.6,0.6,1.5,0.6,2.1,0l6.2-6.2L15,17c0.6,0.6,1.5,0.6,2.1,0
			c0.6-0.6,0.6-1.5,0-2.1L10.9,8.8z"/>
	</g>
</g>
</svg>
