<svg xmlns="http://www.w3.org/2000/svg" viewBox="368 -3244 17.6 17.599">
  <defs>
    <style>
      .cls-1 {
        fill: #fff;
      }
    </style>
  </defs>
  <path id="edit" class="cls-1" d="M17.561,2.439C16.119,1,15.036,1.212,15.036,1.212L8.984,7.264,2.21,14.037,1.2,18.8l4.763-1.01,6.774-6.771,6.052-6.052S19,3.883,17.561,2.439ZM5.68,17.217l-1.624.35a3.71,3.71,0,0,0-.69-.932,3.742,3.742,0,0,0-.932-.691l.35-1.623.47-.469a3.042,3.042,0,0,1,1.881,1.016,3.044,3.044,0,0,1,1.016,1.881Z" transform="translate(366.8 -3245.201)"/>
</svg>
